<mxfile host="app.diagrams.net" modified="2020-10-17T10:30:52.376Z" agent="5.0 (Windows)" etag="jr7a5MxW3RyeEX9ihOA8" version="13.8.0" type="github">
  <diagram id="mkyH2dNW29TS8jkROLKP" name="Page-1">
    <mxGraphModel dx="868" dy="479" grid="1" gridSize="10" guides="1" tooltips="1" connect="1" arrows="1" fold="1" page="1" pageScale="1" pageWidth="850" pageHeight="1100" math="0" shadow="0">
      <root>
        <mxCell id="0" />
        <mxCell id="1" parent="0" />
        <mxCell id="EVHOVoJj-1QvfB87d5gi-1" value="" style="rounded=0;whiteSpace=wrap;html=1;fillColor=#FFFF99;" vertex="1" parent="1">
          <mxGeometry x="310" y="60" width="260" height="480" as="geometry" />
        </mxCell>
        <mxCell id="EVHOVoJj-1QvfB87d5gi-2" value="&lt;font style=&quot;font-size: 18px&quot;&gt;&lt;font style=&quot;font-size: 18px&quot;&gt;Word Embedding&lt;/font&gt;&lt;br&gt;&lt;/font&gt;" style="ellipse;whiteSpace=wrap;html=1;fillColor=#33FF33;" vertex="1" parent="1">
          <mxGeometry x="340" y="70" width="200" height="100" as="geometry" />
        </mxCell>
        <mxCell id="EVHOVoJj-1QvfB87d5gi-3" value="&lt;font style=&quot;font-size: 18px&quot;&gt;Character Embedding&lt;/font&gt;" style="ellipse;whiteSpace=wrap;html=1;fillColor=#66FF66;" vertex="1" parent="1">
          <mxGeometry x="340" y="190" width="200" height="100" as="geometry" />
        </mxCell>
        <mxCell id="EVHOVoJj-1QvfB87d5gi-4" value="&lt;div&gt;&lt;font style=&quot;font-size: 18px&quot;&gt;Highway Network &lt;br&gt;&lt;/font&gt;&lt;/div&gt;&lt;div&gt;&lt;font style=&quot;font-size: 18px&quot;&gt;Layer&lt;/font&gt;&lt;/div&gt;" style="ellipse;whiteSpace=wrap;html=1;fillColor=#66FF66;" vertex="1" parent="1">
          <mxGeometry x="340" y="310" width="200" height="100" as="geometry" />
        </mxCell>
        <mxCell id="EVHOVoJj-1QvfB87d5gi-5" value="&lt;font style=&quot;font-size: 18px&quot;&gt;Contexual Embedding&lt;/font&gt;" style="ellipse;whiteSpace=wrap;html=1;fillColor=#99FF99;" vertex="1" parent="1">
          <mxGeometry x="340" y="430" width="200" height="100" as="geometry" />
        </mxCell>
        <mxCell id="EVHOVoJj-1QvfB87d5gi-6" value="&lt;font style=&quot;font-size: 18px&quot;&gt;System&lt;/font&gt;" style="shape=umlActor;verticalLabelPosition=bottom;verticalAlign=top;html=1;outlineConnect=0;fillColor=#FFCCCC;" vertex="1" parent="1">
          <mxGeometry x="150" y="220" width="70" height="120" as="geometry" />
        </mxCell>
        <mxCell id="EVHOVoJj-1QvfB87d5gi-7" value="" style="endArrow=classic;html=1;fillColor=#3333FF;entryX=-0.015;entryY=0.479;entryDx=0;entryDy=0;entryPerimeter=0;" edge="1" parent="1" target="EVHOVoJj-1QvfB87d5gi-1">
          <mxGeometry width="50" height="50" relative="1" as="geometry">
            <mxPoint x="220" y="290" as="sourcePoint" />
            <mxPoint x="280" y="250" as="targetPoint" />
          </mxGeometry>
        </mxCell>
      </root>
    </mxGraphModel>
  </diagram>
</mxfile>
